<?xml version="1.0" standalone="no"?>
<!DOCTYPE svg PUBLIC "-//W3C//DTD SVG 20010904//EN"
 "http://www.w3.org/TR/2001/REC-SVG-20010904/DTD/svg10.dtd">
<svg version="1.0" xmlns="http://www.w3.org/2000/svg"
 width="700.000000pt" height="700.000000pt" viewBox="0 0 700.000000 700.000000"
 preserveAspectRatio="xMidYMid meet">
<metadata>
Created by potrace 1.11, written by Peter Selinger 2001-2013
</metadata>
<g transform="translate(0.000000,700.000000) scale(0.100000,-0.100000)"
fill="#000000" stroke="none">
<path d="M0 6705 l0 -295 3500 0 3500 0 0 295 0 295 -3500 0 -3500 0 0 -295z"/>
<path d="M940 3419 c-273 -42 -499 -227 -585 -480 -23 -70 -29 -106 -33 -211
-5 -158 12 -246 74 -375 79 -164 232 -296 419 -359 115 -39 293 -45 419 -15
215 52 392 193 482 386 53 114 68 185 68 325 0 151 -15 217 -81 350 -85 174
-255 311 -447 360 -94 24 -230 32 -316 19z m272 -336 c86 -39 173 -137 199
-225 18 -62 26 -163 18 -237 -26 -234 -214 -380 -441 -342 -213 35 -334 213
-315 461 14 178 107 308 256 355 68 22 222 15 283 -12z"/>
<path d="M1890 2690 l0 -720 170 0 170 0 2 443 3 442 294 -442 293 -443 174 0
174 0 0 720 0 720 -175 0 -175 0 -2 -445 -3 -444 -290 442 -291 442 -172 3
-172 2 0 -720z"/>
<path d="M3327 3403 c-4 -3 -7 -327 -7 -720 l0 -713 440 0 440 0 0 140 0 140
-265 0 -265 0 0 160 0 160 235 0 235 0 0 130 0 130 -232 2 -233 3 -3 148 -3
147 266 0 265 0 0 140 0 140 -433 0 c-239 0 -437 -3 -440 -7z"/>
<path d="M5225 1776 c-180 -36 -292 -113 -354 -245 -23 -50 -26 -68 -26 -171
0 -140 16 -182 100 -266 65 -66 138 -102 341 -168 209 -69 264 -112 264 -204
0 -45 -26 -84 -70 -107 -42 -22 -147 -19 -190 4 -38 20 -80 82 -80 119 l0 22
-190 0 -190 0 7 -47 c32 -244 242 -395 548 -396 125 -1 193 13 282 54 92 43
165 116 210 207 36 73 38 80 38 176 -1 128 -22 181 -104 259 -76 73 -141 105
-371 184 -96 33 -180 75 -205 103 -15 17 -20 36 -20 82 0 54 3 62 31 88 83 73
250 25 270 -79 l7 -31 188 0 189 0 0 23 c0 39 -27 123 -56 177 -50 92 -163
172 -291 205 -84 22 -244 27 -328 11z"/>
<path d="M370 1050 l0 -720 175 0 175 0 2 442 3 442 292 -442 293 -442 175 0
175 0 0 720 0 720 -175 0 -175 0 -2 -443 -3 -443 -290 442 -290 443 -177 1
-178 0 0 -720z"/>
<path d="M1810 1050 l0 -720 440 0 440 0 0 140 0 140 -265 0 -266 0 3 158 3
157 233 3 232 2 0 135 0 135 -235 0 -236 0 3 143 3 142 263 3 262 2 0 140 0
140 -440 0 -440 0 0 -720z"/>
<path d="M2750 1757 c0 -7 80 -330 179 -718 l178 -704 214 -3 214 -2 114 457
c63 252 117 461 120 465 4 4 53 -185 110 -420 56 -235 107 -444 112 -464 l10
-38 213 0 212 0 183 703 c100 386 184 710 187 720 5 16 -8 17 -184 17 l-189 0
-103 -520 c-56 -287 -104 -519 -106 -517 -3 3 -244 1022 -244 1032 0 3 -87 5
-194 5 l-194 0 -15 -62 c-8 -35 -66 -270 -128 -523 l-113 -460 -97 490 c-54
270 -100 505 -104 523 l-6 32 -184 0 c-146 0 -185 -3 -185 -13z"/>
</g>
</svg>
